<?xml version="1.0" encoding="UTF-8" standalone="no"?>
<svg
   xmlns:dc="http://purl.org/dc/elements/1.1/"
   xmlns:cc="http://creativecommons.org/ns#"
   xmlns:rdf="http://www.w3.org/1999/02/22-rdf-syntax-ns#"
   xmlns:svg="http://www.w3.org/2000/svg"
   xmlns="http://www.w3.org/2000/svg"
   viewBox="0 0 2382.0112 1745.4441"
   height="1745.4441"
   width="2382.0112"
   xml:space="preserve"
   id="svg885"
   version="1.1"><metadata
     id="metadata891"><rdf:RDF><cc:Work
         rdf:about=""><dc:format>image/svg+xml</dc:format><dc:type
           rdf:resource="http://purl.org/dc/dcmitype/StillImage" /><dc:title></dc:title></cc:Work></rdf:RDF></metadata><defs
     id="defs889" /><g
     transform="matrix(1.3333333,0,0,-1.3333333,-1215.5941,2095.221)"
     id="g893"><g
       id="g1595"><path
         id="path901"
         style="fill:#50bfa5;fill-opacity:1;fill-rule:nonzero;stroke:none;stroke-width:0.1"
         d="m 1590.57,1322.93 -14.02,-4.3 -9.41,21.79 -21.27,-3.77 -9.71,15.16 -7.68,-4.92 12.99,-20.27 20.16,3.57 9.79,-22.67 21.1,6.48 -1.95,8.93" /><g
         transform="scale(0.152848)"
         id="g903"><path
           id="path905"
           style="fill:#50bfa5;fill-opacity:1;fill-rule:nonzero;stroke:none"
           d="m 16287.2,3527.81 -91.7,-28.14 -61.5,142.57 -139.2,-24.67 -63.5,99.18 -50.2,-32.19 84.9,-132.55 131.9,23.3 64.1,-148.32 138,42.4 -12.8,58.42" /></g><g
         transform="scale(0.104755)"
         id="g907"><path
           id="path909"
           style="fill:#50bfa5;fill-opacity:1;fill-rule:nonzero;stroke:none"
           d="m 14359.3,2684.85 c 0,0 -714.1,2420.13 -771.4,2953.95 -57.2,533.91 342.1,368.48 342.1,368.48 0,0 -335.9,1017.23 -93.1,1258.66 243,241.42 462,-208.59 462,-208.59 0,0 73.5,1234.89 332.5,1235.27 482.3,0.86 472.9,-1346.67 472.9,-1346.67 0,0 123,527.52 381.3,382.89 389.5,-218.13 -169,-1275.46 -169,-1275.46 0,0 496.3,-0.28 670.6,-250.58 312.8,-448.96 -1627.9,-3117.95 -1627.9,-3117.95" /></g><path
         id="path911"
         style="fill:#50bfa5;fill-opacity:1;fill-rule:nonzero;stroke:none;stroke-width:0.1"
         d="m 1528.65,314.8 c 0,0 -215.63,36.06 -262.53,74.27 -46.9,38.21 -0.48,55.43 -0.48,55.43 0,0 -108.32,55.53 -107.07,93.29 1.26,37.76 55.07,18.56 55.07,18.56 0,0 -91.27,104.08 -69.66,123.85 40.24,36.81 145.76,-71.38 145.76,-71.38 0,0 -31.33,51.45 1.66,59.6 49.77,12.27 86.49,-114.59 86.49,-114.59 0,0 -9.33,50.1 24.98,43.42 61.57,-11.97 125.78,-282.45 125.78,-282.45" /><path
         id="path913"
         style="fill:#3c8f7c;fill-opacity:1;fill-rule:nonzero;stroke:none;stroke-width:0.1"
         d="m 1402.87,597.25 c -34.39,6.22 -24.98,-43.42 -24.98,-43.42 0,0 -36.72,126.86 -86.49,114.59 -32.99,-8.15 -1.66,-59.6 -1.66,-59.6 0,0 -105.52,108.19 -145.76,71.38 l 383.95,-365.46 c -6.84,34.91 -67.39,272.09 -125.06,282.51" /><path
         id="path915"
         style="fill:#355389;fill-opacity:1;fill-rule:nonzero;stroke:none;stroke-width:0.1"
         d="m 1590,285.06 c 0,0 -113.56,115.48 -170.74,127.51 -57.19,12.02 -46.9,-28.66 -46.9,-28.66 0,0 -113.46,99.22 -139.76,75.18 -26.29,-24.04 2.15,-47.25 2.15,-47.25 0,0 -94.51,16.74 -108.03,-14.27 -20.79,-47.65 134.64,-73.59 134.64,-73.59 0,0 -65.14,-4.52 -50.03,-34.4 22.78,-45.06 378.67,-4.52 378.67,-4.52" /><path
         id="path917"
         style="fill:#466eb6;fill-opacity:1;fill-rule:nonzero;stroke:none;stroke-width:0.1"
         d="m 1126.72,397.57 c 13.52,31.01 108.03,14.27 108.03,14.27 0,0 -28.44,23.21 -2.15,47.25 26.3,24.04 136.23,-61.69 136.23,-61.69 0,0 -25.92,49.55 31.26,37.52 C 1457.28,422.89 1590,285.06 1590,285.06 l -463.28,112.51" /><g
         transform="scale(0.112628)"
         id="g919"><path
           id="path921"
           style="fill:#f7cc7f;fill-opacity:1;fill-rule:nonzero;stroke:none"
           d="m 15722.4,13105.9 c -339.4,-55.8 -440.2,-501.3 -158,-700.5 50.7,-35.8 85.8,-89.6 100.7,-149.8 l 51.3,-207.2 c 14.2,-57.1 69.8,-93.8 127.9,-84.2 l 128.5,21.1 c 58.1,9.6 99.1,62.1 94.1,120.8 -17.8,213.9 -39.8,291.5 29.7,386.9 203.4,279.1 -34.7,668.8 -374.2,612.9" /></g><g
         transform="scale(0.110593)"
         id="g923"><path
           id="path925"
           style="fill:#fae0b2;fill-opacity:1;fill-rule:nonzero;stroke:none"
           d="m 16208.4,13042.2 c -10.8,-24.7 -6.7,-56.4 -4.2,-92.9 28.3,16.1 61.2,36.3 71.8,65.8 7.5,20.7 -0.9,49.9 -21.9,55.3 -2.4,0.6 -38.1,-10.8 -45.7,-28.2 z m -320.4,-133.8 c 17.7,-19 47.1,-27.3 90.2,-25.3 -7.4,31.7 -18.5,60.2 -40.2,80.5 -49.2,45.7 -79.4,-23.4 -50,-55.2 z m 159,-483.6 c -22.5,186.7 -54.1,383.7 -64.8,439.6 -198.1,-10.9 -122.8,197.9 -31.4,113 26,-24.2 38.3,-57 46.5,-93 65.7,5.9 130.1,24.7 188.7,55 -3.2,46 -7.7,80.9 5.1,110.4 19.5,44.5 75.8,56.6 98.8,13.2 8.6,-16.3 10.1,-37.1 3.9,-54.3 -13.3,-36.8 -53.3,-61.1 -88.2,-80.2 10.5,-148.4 24.9,-297.9 43,-445.1 l -18.6,-2.4 c -17.9,144.9 -32.2,292 -42.6,438 -58.2,-28.9 -121.5,-47.1 -186.3,-53.2 13.5,-71.4 43.5,-263.5 64.6,-438.7 l -18.7,-2.3" /></g><g
         transform="scale(0.111052)"
         id="g927"><path
           id="path929"
           style="fill:#96d9c9;fill-opacity:1;fill-rule:nonzero;stroke:none"
           d="m 15885.9,12434.7 c 0.4,-1.7 1.1,-3.4 1.5,-5.2 l 52.1,-210.1 c 14.4,-57.9 70.7,-95.1 129.6,-85.4 l 130.4,21.4 c 58.9,9.7 100.5,63 95.5,122.5 -8.1,96.5 -17,165.6 -18.1,221.1 l -391,-64.3" /></g><g
         transform="scale(0.107415)"
         id="g931"><path
           id="path933"
           style="fill:#fae0b2;fill-opacity:1;fill-rule:nonzero;stroke:none"
           d="m 16221.6,13904.2 -106.4,194.2 c -10.2,18.8 -3.3,42.4 15.5,52.7 18.8,10.3 42.3,3.4 52.7,-15.4 l 106.4,-194.2 c 10.2,-18.8 3.3,-42.4 -15.5,-52.7 -18.9,-10.4 -42.4,-3.3 -52.7,15.4" /></g><g
         transform="scale(0.105656)"
         id="g935"><path
           id="path937"
           style="fill:#fae0b2;fill-opacity:1;fill-rule:nonzero;stroke:none"
           d="m 16255.3,13658 -235.8,20.7 c -21.7,1.9 -37.8,21 -35.8,42.7 1.9,21.7 21,37.8 42.7,35.9 l 235.8,-20.6 c 21.7,-1.9 37.8,-21.1 35.9,-42.8 -1.9,-21.7 -21,-37.7 -42.8,-35.9" /></g><g
         transform="scale(0.105514)"
         id="g939"><path
           id="path941"
           style="fill:#fae0b2;fill-opacity:1;fill-rule:nonzero;stroke:none"
           d="m 16043.1,12952.5 c -15.4,15.5 -15.3,40.5 0.3,55.8 58,57.4 121.8,109.5 189.7,154.8 18.1,12.1 42.6,7.2 54.8,-10.9 12.1,-18.2 7.3,-42.7 -10.9,-54.8 -63.7,-42.6 -123.6,-91.4 -178.1,-145.3 -15.5,-15.2 -40.5,-15.2 -55.8,0.4" /></g><g
         transform="scale(0.111328)"
         id="g943"><path
           id="path945"
           style="fill:#fae0b2;fill-opacity:1;fill-rule:nonzero;stroke:none"
           d="m 16204.4,13425.6 c -19.9,5.3 -31.8,25.9 -26.5,45.8 25.4,94.9 40.9,192.8 46.2,290.8 1.2,20.7 18.8,36.5 39.4,35.4 20.7,-1.1 36.5,-18.7 35.4,-39.4 -5.5,-103.2 -21.9,-206.2 -48.6,-306.1 -5.4,-20.1 -26,-31.8 -45.9,-26.5" /></g><g
         transform="scale(0.114369)"
         id="g947"><path
           id="path949"
           style="fill:#fae0b2;fill-opacity:1;fill-rule:nonzero;stroke:none"
           d="m 15997.9,12788.6 c -5.8,19.2 5.1,39.6 24.4,45.4 l 226.5,68.3 c 19.3,5.8 39.6,-5.2 45.4,-24.4 5.8,-19.3 -5.1,-39.6 -24.4,-45.5 l -226.4,-68.2 c -19.3,-5.8 -39.6,5.1 -45.5,24.4" /></g><g
         transform="scale(0.115144)"
         id="g951"><path
           id="path953"
           style="fill:#fae0b2;fill-opacity:1;fill-rule:nonzero;stroke:none"
           d="m 16259.8,12103.9 c -3.2,0 -6.5,0.5 -9.8,1.4 -78,21.9 -153.7,52.3 -225.3,90.3 -17.6,9.4 -24.3,31.3 -14.9,49 9.3,17.6 31.2,24.3 48.9,14.9 66.9,-35.5 137.9,-64 210.9,-84.5 19.2,-5.4 30.4,-25.4 25,-44.7 -4.5,-15.9 -19,-26.4 -34.8,-26.4" /></g><g
         transform="scale(0.142053)"
         id="g955"><path
           id="path957"
           style="fill:#f7cc7f;fill-opacity:1;fill-rule:nonzero;stroke:none"
           d="m 15850.5,8513.77 -92,217.54 -231.3,47.53 c -26.3,5.42 -35.1,38.69 -14.7,56.31 l 178.4,154.72 -26.3,234.72 c -3,26.73 26,45.29 49.1,31.41 l 202.2,-121.92 215.1,97.53 c 24.5,11.11 51.2,-10.71 45,-36.91 l -53.4,-230.05 159.2,-174.45 c 18.2,-19.87 5.7,-51.9 -21.2,-54.21 l -235.3,-20.28 -116.6,-205.34 c -13.3,-23.38 -47.7,-21.38 -58.2,3.4" /></g><g
         transform="scale(0.151706)"
         id="g959"><path
           id="path961"
           style="fill:#f48c7f;fill-opacity:1;fill-rule:nonzero;stroke:none"
           d="m 16213.3,8670.97 -35.4,-142.6 -235.8,31.63 -77.5,-202.11 -180.3,-5.17 2.7,-91.27 241,6.92 73.5,191.53 245.2,-32.9 53.3,214.58 -86.7,29.39" /></g><g
         transform="scale(0.13135)"
         id="g963"><path
           id="path965"
           style="fill:#b75742;fill-opacity:1;fill-rule:nonzero;stroke:none"
           d="m 16300,2119.6 h -4786.1 c -182.8,0 -330.9,153.71 -330.9,343.28 v 204.19 c 0,189.57 148.1,343.28 330.9,343.28 H 16300 v 0 c -218.9,-248.19 -222.7,-627.48 -8.8,-880.4 l 8.8,-10.35" /></g><g
         transform="scale(0.130757)"
         id="g967"><path
           id="path969"
           style="fill:#fae0b2;fill-opacity:1;fill-rule:nonzero;stroke:none"
           d="m 16299.8,2921.45 h -2666.7 c -183.7,0 -332.5,-154.41 -332.5,-344.84 v 0 c 0,-190.51 148.8,-344.84 332.5,-344.84 H 16300 c -124.7,211.54 -124.4,478.68 -0.2,689.68" /></g><g
         transform="scale(0.117864)"
         id="g971"><path
           id="path973"
           style="fill:#86b1f2;fill-opacity:1;fill-rule:nonzero;stroke:none"
           d="m 16291.3,4044.24 c 7.8,14.51 -4,31.4 -21.9,31.4 h -2822.3 c -221.2,0 -400.5,-161.38 -400.5,-360.5 v 0 c 0,-199.05 179.3,-360.5 400.5,-360.5 h 2823 c 18,0 29.9,16.97 22,31.56 v 0 c -111.7,208.37 -111.5,450.6 -0.8,658.04" /></g><g
         transform="scale(0.117739)"
         id="g975"><path
           id="path977"
           style="fill:#f7cc7f;fill-opacity:1;fill-rule:nonzero;stroke:none"
           d="m 16290.8,4012.79 h -1400.2 c -259.9,0 -470.5,-135.39 -470.5,-302.37 0,-167.07 210.6,-302.45 470.5,-302.45 H 16300 c -96.3,192.46 -98.9,411.59 -9.2,604.82" /></g><g
         transform="scale(0.11506)"
         id="g979"><path
           id="path981"
           style="fill:#b75742;fill-opacity:1;fill-rule:nonzero;stroke:none"
           d="m 16300,3959.5 h -186.6 c -40.1,0 -72.7,-13.48 -72.7,-30.08 v -2.69 h 259.3 v 32.77" /></g><g
         transform="scale(0.116186)"
         id="g983"><path
           id="path985"
           style="fill:#f47458;fill-opacity:1;fill-rule:nonzero;stroke:none"
           d="m 16299.7,3846.42 c 0,41.32 -48.2,74.71 -107.8,74.71 h -237.1 c 45.2,0 81.7,-25.39 81.7,-56.63 l -1.1,-801.22 131,103.03 133.6,-103.03 -0.3,783.14" /></g><g
         transform="scale(0.114049)"
         id="g987"><path
           id="path989"
           style="fill:#fae0b2;fill-opacity:1;fill-rule:nonzero;stroke:none"
           d="m 16300,4238.79 h -1697.1 c -150.4,0 -272.4,144.85 -272.4,323.46 v 0 c 0,178.6 122,323.37 272.4,323.37 H 16300 v 0 c -129.7,-179.31 -134.8,-442.27 -12.1,-628.42 l 12.1,-18.41" /></g><g
         transform="scale(0.114377)"
         id="g991"><path
           id="path993"
           style="fill:#466eb6;fill-opacity:1;fill-rule:nonzero;stroke:none"
           d="m 14289.5,4549.15 v 0 c 0,178.1 124.6,322.45 278.2,322.45 h 1717.8 c 8,0 14.5,7.6 14.4,16.87 v 0 c -0.1,9.18 -6.5,16.52 -14.4,16.52 h -2725.2 c -169.4,0 -306.9,-159.29 -306.9,-355.84 v 0 c 0,-196.62 137.5,-355.92 306.9,-355.92 h 2725.2 c 7.9,0 14.3,7.43 14.4,16.52 v 0 c 0.1,9.36 -6.5,16.88 -14.4,16.88 h -1717.8 c -153.6,0 -278.2,144.43 -278.2,322.52" /></g><g
         transform="scale(0.111975)"
         id="g995"><path
           id="path997"
           style="fill:#184655;fill-opacity:1;fill-rule:nonzero;stroke:none"
           d="m 16300,4814.27 h -191.7 c -41.2,0 -74.7,-13.66 -74.7,-30.36 v -2.77 h 266.4 v 33.13" /></g><g
         transform="scale(0.113101)"
         id="g999"><path
           id="path1001"
           style="fill:#3c8f7c;fill-opacity:1;fill-rule:nonzero;stroke:none"
           d="m 16299.7,4691.02 c 0,41.56 -49.6,75.33 -110.7,75.33 h -243.6 c 46.4,0 84,-25.64 84,-57.12 l -1.2,-807.15 134.6,103.8 137.2,-103.8 -0.3,788.94" /></g><g
         transform="scale(0.134721)"
         id="g1003"><path
           id="path1005"
           style="fill:#184655;fill-opacity:1;fill-rule:nonzero;stroke:none"
           d="m 16087.9,8186.95 212.1,55.81 -143.7,-1917.31 -254.5,-8.46 128.4,1800.3 c 2.4,33.19 25.6,61.19 57.7,69.66" /></g><g
         transform="scale(0.135452)"
         id="g1007"><path
           id="path1009"
           style="fill:#f7cc7f;fill-opacity:1;fill-rule:nonzero;stroke:none"
           d="m 16088,6236.96 c -4.8,-0.44 -9.6,-0.37 -14.5,0.22 -41.9,4.95 -72.9,46.59 -69.3,93.02 l 140.5,1793.11 c 3.6,46.46 40.5,80.12 82.4,75.15 41.9,-4.95 72.9,-46.61 69.3,-93.07 L 16156,6312.27 c -3.3,-40.98 -32.4,-72.06 -68,-75.31" /></g><g
         transform="scale(0.134317)"
         id="g1011"><path
           id="path1013"
           style="fill:#f7cc7f;fill-opacity:1;fill-rule:nonzero;stroke:none"
           d="m 14266.1,6193.32 c 0.1,-1.34 0.1,-2.6 0.3,-3.94 v 0 c 6.6,-73.56 63.6,-128.65 127.2,-122.92 l 1796.6,160.81 c 63.6,5.66 109.8,69.91 103.2,143.47 -0.3,3.13 -0.7,6.18 -1.2,9.23 l -2026.1,-186.65" /></g><g
         transform="scale(0.127866)"
         id="g1015"><path
           id="path1017"
           style="fill:#f7a491;fill-opacity:1;fill-rule:nonzero;stroke:none"
           d="m 16300,4465.55 c -123.6,-68.51 -501.3,51.61 -501.3,62.48 -5.4,-103.23 -423,-1113.66 -423,-1113.66 l 0.4,-310.88 c 0,0 860.3,-40.98 848,35.04 -12.4,76.02 -58.7,26.59 -230.3,170.18 -15.2,12.75 -256.2,68.66 -191,211.31 131.3,287.26 410.2,766.2 497.2,945.53" /></g><g
         transform="scale(0.128113)"
         id="g1019"><path
           id="path1021"
           style="fill:#3c8f7c;fill-opacity:1;fill-rule:nonzero;stroke:none"
           d="m 15318.1,3086.42 940.1,-0.24 c 33.8,3.44 41.8,31.07 29.8,47.85 -24.7,34.5 -204.8,115.99 -325.9,170.01 -210.9,-24.59 -581.7,56.51 -615.6,104.59 -89.3,-119.58 -47.3,-318.31 -28.4,-322.21" /></g><g
         transform="scale(0.13132)"
         id="g1023"><path
           id="path1025"
           style="fill:#355389;fill-opacity:1;fill-rule:nonzero;stroke:none"
           d="m 14743,5054.46 c -12.5,37.24 789.5,377.55 825.3,338.64 63.6,-68.76 -433.9,-1359.81 -433.9,-1359.81 l 571.6,-174.61 c 0,0 594,1491.55 569.2,1764.39 -24.8,272.77 -322.4,582.78 -967.2,384.41 -644.8,-198.45 -565,-953.02 -565,-953.02" /></g><g
         transform="scale(0.133258)"
         id="g1027"><path
           id="path1029"
           style="fill:#f7a491;fill-opacity:1;fill-rule:nonzero;stroke:none"
           d="m 16164.8,4117.66 c -133.5,24.24 -306.3,31.15 -444.8,33.55 16.4,-123.22 95.5,-755.16 81,-794.03 -58.6,-157.29 -188.7,-230.91 -188.7,-230.91 0,0 613.6,-553.66 650.6,-489.72 37.1,63.93 -27.3,55.38 -67.4,266.32 -3.5,18.76 -92.3,313.23 -97.7,472.02 -10.5,302.87 62.4,574.53 67,742.77" /></g><g
         transform="scale(0.132534)"
         id="g1031"><path
           id="path1033"
           style="fill:#466eb6;fill-opacity:1;fill-rule:nonzero;stroke:none"
           d="m 16055,6218.84 c -86.1,45.88 -309.5,47.54 -555.2,31.61 -479,-31.08 -951.9,-125.32 -1407.5,-276.3 l -304.9,-100.96 0.9,312.6 c 0,0 -970,162.3 -1003.8,-78.09 -50.7,-362.02 12.3,-1097.07 335.5,-1261.11 1003.9,-509.6 2410.7,811.79 2415.8,638.93 6.8,-232.17 202.5,-1096.17 252.6,-1474.41 139.2,-2.41 378.3,-2.34 482,21.51 20.2,741.01 29.6,2055.46 -215.4,2186.22" /></g><g
         transform="scale(0.133564)"
         id="g1035"><path
           id="path1037"
           style="fill:#3c8f7c;fill-opacity:1;fill-rule:nonzero;stroke:none"
           d="m 15557.8,3106.16 688.3,-549.7 c 27.2,-18.12 49.9,-2.48 51.2,17.29 2.7,40.65 -81.5,210.61 -138.4,324.26 -171.5,109.99 -397.7,396.67 -393.6,452.97 -72.6,-61.24 -219.1,-230.37 -207.5,-244.82" /></g><g
         transform="scale(0.11484)"
         id="g1039"><path
           id="path1041"
           style="fill:#13375b;fill-opacity:1;fill-rule:nonzero;stroke:none"
           d="m 16282.7,10664.4 c -26.9,245.8 -55.2,492.5 -258.9,672.7 -164.9,145.7 -374.5,170.4 -581.9,92.4 -587.3,-221 -284.7,-742.6 -1033.6,-1268.5 -232.7,-163.41 -489.2,-275.26 -664.4,-495.32 -245.3,-308.01 -152.6,-678.51 70.8,-925.87 1069.5,-1183.55 2263.4,414.87 2349.2,798.57 63.7,285.45 136.1,967.82 118.8,1126.02" /></g><g
         transform="scale(0.11492)"
         id="g1043"><path
           id="path1045"
           style="fill:#50bfa5;fill-opacity:1;fill-rule:nonzero;stroke:none"
           d="m 16054.3,9275.81 c -87.3,160.93 -177.2,288.64 -177.2,288.64 -90.6,160.96 -324.5,242.38 -324.5,242.38 0,0 -78.2,-1.59 -168.1,-6 -5.6,-14.9 -11.2,-25.56 -17,-29.83 -33.7,-25.33 -227.3,7.36 -352.2,-77.49 -419,-359.14 -303.1,-2099.89 -270.2,-2649.67 l 1276,-12.1 c 0,0 -160.9,1183 98.3,1486.95 180.6,211.66 64.4,518.4 -65.1,757.12" /></g><g
         transform="scale(0.113927)"
         id="g1047"><path
           id="path1049"
           style="fill:#f7a491;fill-opacity:1;fill-rule:nonzero;stroke:none"
           d="m 15614.1,10486.4 c 0,0 -70.7,-505.3 -120.1,-628.08 -49.5,-122.78 271.6,-385.37 538.8,-465.07 267.2,-79.71 -81.6,271.21 -70.6,402.47 11.1,131.25 59.7,752.68 59.7,752.68 l -407.8,-62" /></g><g
         transform="scale(0.111983)"
         id="g1051"><path
           id="path1053"
           style="fill:#f47458;fill-opacity:1;fill-rule:nonzero;stroke:none"
           d="m 16286.2,10550.2 c 8,104.6 13.8,181.3 13.8,181.3 l -414.9,-63.1 c 0,0 -10.4,-60.4 -22,-145.8 168.2,-97.6 319.4,-66.8 423.1,27.6" /></g><g
         transform="scale(0.113445)"
         id="g1055"><path
           id="path1057"
           style="fill:#f7a491;fill-opacity:1;fill-rule:nonzero;stroke:none"
           d="m 15808.9,11457.8 c 0,0 -161.4,-36.4 -261.1,-188.5 -99.6,-152.1 -168,-599.9 160.3,-808.8 328.2,-209.1 583.4,86.6 587.7,374.9 4.2,288.4 -57.6,673.2 -486.9,622.4" /></g><g
         transform="scale(0.114133)"
         id="g1059"><path
           id="path1061"
           style="fill:#f7a491;fill-opacity:1;fill-rule:nonzero;stroke:none"
           d="m 16272.2,10859.8 c -27.8,-69.2 -83,-112.1 -123.3,-95.9 -40.3,16.2 -50.4,85.4 -22.6,154.6 27.8,69.2 83,112.1 123.3,95.9 40.3,-16.3 50.4,-85.5 22.6,-154.6" /></g><g
         transform="scale(0.110364)"
         id="g1063"><path
           id="path1065"
           style="fill:#13375b;fill-opacity:1;fill-rule:nonzero;stroke:none"
           d="m 16300,11787.3 c 0,0 -211.5,-474.4 -397.3,-516.8 -185.9,-42.4 -183.1,-281.1 -183.1,-281.1 0,0 4,551.3 178.3,677.7 174.1,126.5 402.1,120.2 402.1,120.2" /></g><g
         transform="scale(0.108339)"
         id="g1067"><path
           id="path1069"
           style="fill:#f7a491;fill-opacity:1;fill-rule:nonzero;stroke:none"
           d="m 16275.1,11380.7 c 24.9,-78.5 2.1,-155.8 -51,-172.7 -53,-16.8 -116.3,33.2 -141.2,111.7 -24.9,78.4 -2.1,155.7 51,172.6 53,16.8 116.3,-33.1 141.2,-111.6" /></g><g
         transform="scale(0.125373)"
         id="g1071"><path
           id="path1073"
           style="fill:#f7a491;fill-opacity:1;fill-rule:nonzero;stroke:none"
           d="m 16155.8,6819.25 c -70.2,25.37 -174.6,28.56 -172.9,37.81 7.1,37.49 317.1,-82.79 275.2,-28.08 -23.3,30.47 -255.3,138.39 -311.8,120.6 -54.7,-17.31 -413.9,-118.12 -413.9,-118.12 l -982,230.11 c 0,0 -247.8,563.2 -272,1047.09 -204.9,-27.7 -344.4,-78.34 -522.4,-177.13 85.8,-462.78 294.6,-1212.86 525.3,-1353.64 97,-59.18 1255.9,70.91 1255.9,70.91 0,0 255.4,18.02 297.1,34.06 31.7,12.2 113.2,58.07 157.5,70.67 100.8,28.47 280.3,-43.15 280.8,-23.37 0.4,14.35 -45.1,63.17 -116.8,89.09" /></g><g
         transform="scale(0.110083)"
         id="g1075"><path
           id="path1077"
           style="fill:#96d9c9;fill-opacity:1;fill-rule:nonzero;stroke:none"
           d="m 16268.5,9823.75 c -10.8,169.58 -75.1,333.35 -255.5,386.05 -111.8,32.7 -237.2,1.4 -326.6,-71.6 -106.3,-86.8 -136,-226.12 -135.5,-357.95 1.1,-299.35 21.6,-609.72 76.2,-904.48 202.8,112.56 439.5,180.23 672.9,211.8 -0.1,1.75 -17.4,512.07 -31.5,736.18" /></g><path
         id="path1079"
         style="fill:#f7cc7f;fill-opacity:1;fill-rule:nonzero;stroke:none;stroke-width:0.1"
         d="m 1409.45,1046.2 -190.86,35.54 c -3.83,0.72 -6.36,4.4 -5.65,8.24 l 23.91,128.39 c 0.72,3.83 4.4,6.36 8.24,5.65 l 190.85,-35.54 c 3.84,-0.71 6.37,-4.4 5.65,-8.23 l -23.91,-128.4 c -0.71,-3.83 -4.4,-6.36 -8.23,-5.65" /><path
         id="path1081"
         style="fill:#f7cc7f;fill-opacity:1;fill-rule:nonzero;stroke:none;stroke-width:0.1"
         d="m 1318.6,1192.98 -58.1,10.82 c -3.83,0.72 -6.36,4.4 -5.65,8.24 l 3.64,19.53 c 0.72,3.84 4.4,6.37 8.24,5.65 l 58.09,-10.82 c 3.84,-0.71 6.36,-4.4 5.65,-8.23 l -3.64,-19.54 c -0.71,-3.83 -4.4,-6.36 -8.23,-5.65" /><path
         id="path1083"
         style="fill:#fae0b2;fill-opacity:1;fill-rule:nonzero;stroke:none;stroke-width:0.1"
         d="m 1418.14,1051.11 c -0.99,-3.51 -4.5,-5.69 -8.09,-5.02 l -192.1,35.77 c -3.57,0.67 -6.06,3.94 -5.74,7.56 l 10.05,115.09 c 0.18,1.98 1.18,3.8 2.76,5.01 1.59,1.2 3.61,1.68 5.57,1.32 L 1444,1171.1 c 1.95,-0.37 3.66,-1.53 4.7,-3.22 1.05,-1.69 1.34,-3.73 0.8,-5.64 l -31.36,-111.13" /><g
         transform="scale(0.140708)"
         id="g1085"><path
           id="path1087"
           style="fill:#50bfa5;fill-opacity:1;fill-rule:nonzero;stroke:none"
           d="m 16300,10458.9 -232.3,-63.4 -50,281.4 76,13.5 35.2,-198.2 150.8,41.1 20.3,-74.4" /></g><path
         id="path1089"
         style="fill:#355389;fill-opacity:1;fill-rule:nonzero;stroke:none;stroke-width:0.1"
         d="m 1252.31,927.72 c 8.19,0.67 20.75,-2.94 26.39,-6.76 0.84,-0.79 7.32,-3.37 14.06,-14.53 l -1.52,-1.05 c -7.1,7.44 -11.88,9.11 -17.58,10.82 -9.38,2.41 -18.84,0.61 -19.61,0.19 l -1.74,11.33" /><path
         id="path1091"
         style="fill:#f47458;fill-opacity:1;fill-rule:nonzero;stroke:none;stroke-width:0.1"
         d="m 1292,905.91 c 0,0 -49.87,-8.32 -45.22,-47.28 4.65,-38.96 57.26,-69.26 104.22,-45.17 63.16,32.41 38.21,114.82 -6.75,121.19 -44.95,6.37 -52.25,-28.74 -52.25,-28.74" /><path
         id="path1093"
         style="fill:#f48c7f;fill-opacity:1;fill-rule:nonzero;stroke:none;stroke-width:0.1"
         d="m 1313.16,923.06 c 0,0 13.01,13.36 41.51,1.21 28.51,-12.15 30.57,-68.82 5.15,-65.53 -25.43,3.29 -66.99,56.15 -46.66,64.32" /><g
         transform="scale(0.102225)"
         id="g1095"><path
           id="path1097"
           style="fill:#86b1f2;fill-opacity:1;fill-rule:nonzero;stroke:none"
           d="m 16201.6,14092.5 -2006.4,-715.7 c -64.6,-23.1 -135.7,10.7 -158.8,75.3 l -370.3,1038.2 c -23.1,64.7 10.7,135.8 75.3,158.9 l 2006.4,715.7 c 64.7,23 135.8,-10.7 158.9,-75.4 l 370.2,-1038.1 c 23.1,-64.7 -10.5,-135.8 -75.3,-158.9" /></g><path
         id="path1099"
         style="fill:#ffffff;fill-opacity:1;fill-rule:nonzero;stroke:none;stroke-width:0.1"
         d="m 1520.27,1467.89 c 7.54,-21.14 -3.48,-44.4 -24.63,-51.94 -21.14,-7.54 -44.39,3.48 -51.94,24.63 -7.54,21.14 3.49,44.39 24.63,51.94 21.14,7.54 44.4,-3.49 51.94,-24.63" /><path
         id="path1101"
         style="fill:#86b1f2;fill-opacity:1;fill-rule:nonzero;stroke:none;stroke-width:0.1"
         d="m 1487.81,1473.58 c 2.23,-6.24 -1.03,-13.09 -7.26,-15.32 -6.24,-2.22 -13.09,1.03 -15.32,7.26 -2.22,6.24 1.03,13.1 7.27,15.32 6.23,2.22 13.09,-1.03 15.31,-7.26" /><path
         id="path1103"
         style="fill:#86b1f2;fill-opacity:1;fill-rule:nonzero;stroke:none;stroke-width:0.1"
         d="m 1507.34,1440.16 -36.07,-12.87 -1.45,4.05 c -2.63,7.38 1.22,15.51 8.61,18.14 l 9.32,3.33 c 7.39,2.63 15.51,-1.22 18.15,-8.61 l 1.44,-4.04" /><path
         id="path1105"
         style="fill:#ffffff;fill-opacity:1;fill-rule:nonzero;stroke:none;stroke-width:0.1"
         d="m 1525.32,1490.08 c -2.18,0 -4.14,1.38 -4.88,3.44 -0.96,2.69 0.45,5.66 3.14,6.62 l 89.66,31.98 c 0.56,0.2 1.15,0.31 1.74,0.31 2.19,0 4.15,-1.39 4.88,-3.45 0.96,-2.69 -0.44,-5.66 -3.14,-6.62 l -89.65,-31.98 c -0.57,-0.2 -1.15,-0.3 -1.75,-0.3" /><path
         id="path1107"
         style="fill:#ffffff;fill-opacity:1;fill-rule:nonzero;stroke:none;stroke-width:0.1"
         d="m 1549.53,1467.72 c -2.19,0 -4.15,1.39 -4.89,3.45 -0.96,2.69 0.45,5.66 3.15,6.62 l 70.02,24.98 c 0.56,0.2 1.15,0.3 1.74,0.3 2.19,0 4.15,-1.38 4.88,-3.44 0.47,-1.3 0.4,-2.71 -0.19,-3.96 -0.6,-1.25 -1.64,-2.2 -2.95,-2.66 l -70.02,-24.98 c -0.56,-0.2 -1.15,-0.31 -1.74,-0.31" /><g
         transform="scale(0.121159)"
         id="g1109"><path
           id="path1111"
           style="fill:#f47458;fill-opacity:1;fill-rule:nonzero;stroke:none"
           d="m 16300,5283.39 h -4087.5 c -127,0 -229.8,-102.92 -229.8,-229.86 v -193.3 c 0,-126.94 102.8,-229.86 229.8,-229.86 H 16300 l -2.1,2.22 c -174.9,182 -174,469.88 2.1,650.8" /></g><g
         transform="scale(0.120621)"
         id="g1113"><path
           id="path1115"
           style="fill:#fae0b2;fill-opacity:1;fill-rule:nonzero;stroke:none"
           d="m 16300,5209.85 h -2194.9 c -127.5,0 -230.9,-103.38 -230.9,-230.89 v 0 c 0,-127.5 103.4,-230.88 230.9,-230.88 h 2194.8 c -80.6,143.01 -80.6,318.93 0.1,461.77" /></g><g
         transform="scale(0.155482)"
         id="g1117"><path
           id="path1119"
           style="fill:#fae0b2;fill-opacity:1;fill-rule:nonzero;stroke:none"
           d="m 15308.7,4102.41 -241.5,605.74 c -12.1,30.48 2.8,65.02 33.2,77.18 l 868.8,346.27 c 30.5,12.16 65,-2.7 77.2,-33.18 l 241.4,-605.73 c 12.2,-30.49 -2.7,-65.03 -33.1,-77.18 l -868.8,-346.28 c -30.5,-12.16 -65.1,2.7 -77.2,33.18" /></g><g
         transform="scale(0.154179)"
         id="g1121"><path
           id="path1123"
           style="fill:#466eb6;fill-opacity:1;fill-rule:nonzero;stroke:none"
           d="m 16264.6,4490.31 -218.9,548.91 c -3.5,8.82 0.8,18.81 9.6,22.32 v 0 c 8.9,3.5 18.9,-0.78 22.4,-9.6 l 218.8,-548.91 c 3.5,-8.82 -0.8,-18.81 -9.6,-22.32 v 0 c -8.8,-3.5 -18.8,0.78 -22.3,9.6" /></g><g
         transform="scale(0.153193)"
         id="g1125"><path
           id="path1127"
           style="fill:#466eb6;fill-opacity:1;fill-rule:nonzero;stroke:none"
           d="m 16264.3,4592 -180.8,453.54 c -3.5,8.88 0.8,18.93 9.7,22.46 v 0 c 8.9,3.59 18.9,-0.78 22.5,-9.66 l 180.8,-453.55 c 3.5,-8.88 -0.8,-18.93 -9.7,-22.52 v 0 c -8.9,-3.53 -18.9,0.78 -22.5,9.73" /></g><g
         transform="scale(0.152947)"
         id="g1129"><path
           id="path1131"
           style="fill:#466eb6;fill-opacity:1;fill-rule:nonzero;stroke:none"
           d="m 16264.3,4474.16 -220.6,553.32 c -3.5,8.9 0.8,18.96 9.7,22.5 v 0 c 8.9,3.59 19,-0.79 22.5,-9.68 l 220.6,-553.33 c 3.5,-8.89 -0.8,-18.96 -9.7,-22.49 v 0 c -8.9,-3.53 -19,0.78 -22.5,9.68" /></g><g
         transform="scale(0.15186)"
         id="g1133"><path
           id="path1135"
           style="fill:#466eb6;fill-opacity:1;fill-rule:nonzero;stroke:none"
           d="m 16264,4607.02 -171.4,430.13 c -3.6,8.96 0.8,19.1 9.7,22.66 v 0 c 9,3.62 19.1,-0.79 22.7,-9.75 l 171.4,-430.13 c 3.6,-8.96 -0.7,-19.1 -9.7,-22.65 v 0 c -9,-3.56 -19.1,0.79 -22.7,9.74" /></g><g
         transform="scale(0.153803)"
         id="g1137"><path
           id="path1139"
           style="fill:#355389;fill-opacity:1;fill-rule:nonzero;stroke:none"
           d="m 16298.4,5110.24 -4.4,11.05 c -1.7,4.09 -6.1,6.17 -9.9,4.62 l -83.4,-33.23 c -3.8,-1.49 -5.6,-6.11 -4,-10.14 l 4.4,-11.12 c 1.6,-4.03 6.1,-6.11 9.9,-4.62 l 83.3,33.23 c 3.9,1.56 5.7,6.11 4.1,10.21" /></g><g
         transform="scale(0.153982)"
         id="g1141"><path
           id="path1143"
           style="fill:#355389;fill-opacity:1;fill-rule:nonzero;stroke:none"
           d="m 16298.4,5056.97 -4.4,11.04 c -1.7,4.09 -6.1,6.17 -10,4.61 l -83.2,-33.19 c -3.9,-1.49 -5.6,-6.04 -4,-10.13 l 4.4,-11.1 c 1.6,-4.03 6.1,-6.11 9.9,-4.61 l 83.3,33.18 c 3.8,1.56 5.6,6.11 4,10.2" /></g><g
         transform="scale(0.15416)"
         id="g1145"><path
           id="path1147"
           style="fill:#355389;fill-opacity:1;fill-rule:nonzero;stroke:none"
           d="m 16298.4,5003.84 -4.4,11.03 c -1.7,4.09 -6.1,6.16 -9.9,4.61 l -83.2,-33.15 c -3.8,-1.49 -5.6,-6.03 -4,-10.12 l 4.4,-11.09 c 1.7,-4.02 6.1,-6.1 9.9,-4.61 l 83.2,33.21 c 3.8,1.5 5.6,6.04 4,10.12" /></g><g
         transform="scale(0.154338)"
         id="g1149"><path
           id="path1151"
           style="fill:#355389;fill-opacity:1;fill-rule:nonzero;stroke:none"
           d="m 16298.4,4950.82 -4.4,11.02 c -1.6,4.08 -6.1,6.15 -9.9,4.6 l -83,-33.11 c -3.9,-1.49 -5.7,-6.03 -4.1,-10.11 l 4.4,-11.08 c 1.7,-4.02 6.1,-6.09 9.9,-4.54 l 83.1,33.11 c 3.8,1.49 5.6,6.03 4,10.11" /></g><g
         transform="scale(0.154516)"
         id="g1153"><path
           id="path1155"
           style="fill:#355389;fill-opacity:1;fill-rule:nonzero;stroke:none"
           d="m 16298.4,4897.94 -4.4,11 c -1.6,4.08 -6,6.15 -9.9,4.6 l -82.9,-33.07 c -3.8,-1.49 -5.6,-6.02 -4,-10.1 l 4.4,-11 c 1.6,-4.08 6,-6.15 9.9,-4.59 l 82.9,33.06 c 3.9,1.49 5.6,6.02 4,10.1" /></g><g
         transform="scale(0.154694)"
         id="g1157"><path
           id="path1159"
           style="fill:#355389;fill-opacity:1;fill-rule:nonzero;stroke:none"
           d="m 16298.4,4845.16 -4.4,10.99 c -1.6,4.08 -6,6.14 -9.8,4.59 l -82.9,-33.03 c -3.8,-1.49 -5.6,-6.01 -4,-10.08 l 4.4,-10.99 c 1.6,-4.08 6,-6.14 9.8,-4.59 l 82.9,33.03 c 3.8,1.48 5.6,6.01 4,10.08" /></g><g
         transform="scale(0.154872)"
         id="g1161"><path
           id="path1163"
           style="fill:#355389;fill-opacity:1;fill-rule:nonzero;stroke:none"
           d="m 16298.4,4792.53 -4.4,10.97 c -1.6,4.07 -6,6.14 -9.8,4.59 l -82.8,-33 c -3.8,-1.48 -5.5,-6 -3.9,-10.07 l 4.4,-10.98 c 1.6,-4.06 6,-6.13 9.8,-4.58 l 82.7,32.99 c 3.9,1.49 5.6,6.01 4,10.08" /></g><g
         transform="scale(0.155051)"
         id="g1165"><path
           id="path1167"
           style="fill:#355389;fill-opacity:1;fill-rule:nonzero;stroke:none"
           d="m 16298.4,4739.99 -4.4,10.97 c -1.6,4.06 -6,6.12 -9.8,4.57 l -82.7,-32.95 c -3.8,-1.48 -5.6,-6 -4,-10.06 l 4.4,-10.97 c 1.6,-4.06 6,-6.12 9.8,-4.58 l 82.7,32.96 c 3.8,1.48 5.6,6 4,10.06" /></g><g
         transform="scale(0.155229)"
         id="g1169"><path
           id="path1171"
           style="fill:#355389;fill-opacity:1;fill-rule:nonzero;stroke:none"
           d="m 16298.4,4687.6 -4.4,10.95 c -1.6,4.06 -6,6.12 -9.8,4.57 l -82.6,-32.92 c -3.8,-1.48 -5.5,-5.99 -3.9,-10.05 l 4.4,-10.95 c 1.6,-4.06 6,-6.12 9.8,-4.57 l 82.6,32.91 c 3.8,1.49 5.5,6 3.9,10.06" /></g><g
         transform="scale(0.155407)"
         id="g1173"><path
           id="path1175"
           style="fill:#355389;fill-opacity:1;fill-rule:nonzero;stroke:none"
           d="m 16298.4,4635.3 -4.4,10.94 c -1.6,4.05 -6,6.11 -9.8,4.57 l -82.5,-32.88 c -3.8,-1.48 -5.6,-5.99 -3.9,-10.04 l 4.3,-10.94 c 1.6,-4.05 6,-6.11 9.8,-4.57 l 82.5,32.88 c 3.8,1.48 5.6,5.99 4,10.04" /></g><g
         transform="scale(0.155585)"
         id="g1177"><path
           id="path1179"
           style="fill:#355389;fill-opacity:1;fill-rule:nonzero;stroke:none"
           d="m 16298.4,4583.14 -4.4,11 c -1.5,3.98 -5.9,6.04 -9.7,4.5 l -82.4,-32.85 c -3.8,-1.48 -5.6,-5.98 -4,-10.02 l 4.4,-10.93 c 1.6,-4.05 6,-6.11 9.8,-4.56 l 82.4,32.84 c 3.8,1.48 5.5,5.98 3.9,10.02" /></g><g
         transform="scale(0.155764)"
         id="g1181"><path
           id="path1183"
           style="fill:#355389;fill-opacity:1;fill-rule:nonzero;stroke:none"
           d="m 16298.4,4531.09 -4.4,10.98 c -1.6,3.98 -5.9,6.03 -9.7,4.56 l -82.3,-32.87 c -3.8,-1.48 -5.6,-5.97 -4,-10.02 l 4.4,-10.91 c 1.6,-4.05 5.9,-6.1 9.7,-4.56 l 82.3,32.81 c 3.8,1.54 5.6,5.97 4,10.01" /></g><g
         transform="scale(0.158728)"
         id="g1185"><path
           id="path1187"
           style="fill:#b75742;fill-opacity:1;fill-rule:nonzero;stroke:none"
           d="m 16217.2,4493.72 -337.8,-480.95 c -0.7,-1.07 -1.4,-2.27 -1.8,-3.53 l -34.4,-105.65 c -4,-12.28 10.2,-22.49 20.5,-14.68 l 90.4,68.17 c 1.2,0.82 2.1,1.83 2.9,2.96 l 338.7,482.21 c 4.3,6.17 2.6,14.68 -3.8,18.71 l -56.8,36.35 c -6,3.78 -13.9,2.21 -17.9,-3.59" /></g><g
         transform="scale(0.155385)"
         id="g1189"><path
           id="path1191"
           style="fill:#f7cc7f;fill-opacity:1;fill-rule:nonzero;stroke:none"
           d="m 16300,4044.74 -0.8,-1.23 -89.2,-67.18 -24.2,16.28 33.3,102.33 c 26.1,-14.29 57.3,-28.96 80.9,-50.2" /></g><g
         transform="scale(0.132543)"
         id="g1193"><path
           id="path1195"
           style="fill:#466eb6;fill-opacity:1;fill-rule:nonzero;stroke:none"
           d="m 15323.1,11617 c 58.3,-46.5 159.6,-196 288.7,-301 75.6,-61.4 133.9,-45.8 230.4,-57.4 457.8,-55.4 333.8,-149 388.7,-158.1 -15.6,-35.9 -158.3,-339.1 -184.9,-400.4 -24.6,-56.5 -67.1,-81.8 -128.7,-73.3 -94.7,13.1 -190.2,22.8 -283.4,43 -239,51.8 -371.9,171.3 -543.2,316.5 -45.4,38.5 -56.6,86.5 -33,140.9 109.6,253.3 253.6,466.5 265.4,489.8" /></g><g
         transform="scale(0.134152)"
         id="g1197"><path
           id="path1199"
           style="fill:#86b1f2;fill-opacity:1;fill-rule:nonzero;stroke:none"
           d="m 16085.2,10606.9 c -2,-98.5 5.5,-118.3 -36.9,-103.4 -25.4,9 -50.1,20.8 -74.2,33.2 -16.9,8.7 -17.6,20.3 -3.8,34.2 20.1,20.1 40.7,39.8 60.8,59.3 -14.7,38.7 2.1,83.7 38.3,104.9 7.3,4.3 2,-4.9 65,140.1 -208.4,25.7 -355.4,42.9 -609.5,74.2 -67.9,8.3 -128.4,34.8 -180.9,78.7 -181.6,151.9 -363.1,303.8 -544.5,455.8 -24.6,20.7 -27.7,50.9 -8.2,74.1 15,17.8 34.8,18.7 56.1,16 58,-7.3 626.7,-77.9 684.4,-84.7 75.9,-8.8 142.7,-37.4 201.4,-86.5 178.3,-149.4 357.1,-298.2 535.6,-447.2 24.6,-20.5 31.2,-39.2 22.6,-62 -9.5,-25 -30.2,-36.9 -61.3,-30.2 -22.6,4.9 -32.5,-1.9 -40.3,-22.8 -35,-94.2 -59.5,-115.1 -51,-149.5 6.5,-26.6 -25.1,-72.6 -53.6,-84.2" /></g><g
         transform="scale(0.148531)"
         id="g1201"><path
           id="path1203"
           style="fill:#466eb6;fill-opacity:1;fill-rule:nonzero;stroke:none"
           d="m 15380.1,3531.98 93.6,-89.27 c 221.4,-211.2 402,-461.39 532.6,-738.03 l 14.4,-30.36 c 0,0 245.1,-21.68 279.3,199.96 v 0 c -215,242.77 -392,502.05 -538.1,790.4 l -44.3,103.62 -337.5,-236.32" /></g><g
         transform="scale(0.143331)"
         id="g1205"><path
           id="path1207"
           style="fill:#86b1f2;fill-opacity:1;fill-rule:nonzero;stroke:none"
           d="m 16287.5,3905.29 c 12.5,-17.86 -55.6,-86.93 -152.2,-154.19 -96.4,-67.33 -185.3,-108.21 -197.7,-90.35 -12.5,17.86 56.1,87.77 152.6,155.02 96.5,67.33 184.9,107.45 197.3,89.52" /></g><g
         transform="scale(0.143317)"
         id="g1209"><path
           id="path1211"
           style="fill:#355389;fill-opacity:1;fill-rule:nonzero;stroke:none"
           d="m 16289.5,3905.05 -0.2,0.34 c 0,0 -193.5,-163.69 -273.1,-180.36 l 24.6,-33.5 c 29.1,15.7 62.2,36.15 96.1,59.94 95.5,66.5 163.1,134.74 152.6,153.58" /></g><g
         transform="scale(0.14594)"
         id="g1213"><path
           id="path1215"
           style="fill:#b75742;fill-opacity:1;fill-rule:nonzero;stroke:none"
           d="m 16250.5,3368.17 c 0.4,-27.68 -10.3,-147.32 -209.2,-197.21 13,-17.81 25.9,-35.83 38.5,-53.99 126,37.27 182.6,101.89 208.1,151.16 4,7.74 8.9,18.22 12.1,26.31 -16.8,24.39 -33.3,48.92 -49.5,73.73" /></g><g
         transform="scale(0.143893)"
         id="g1217"><path
           id="path1219"
           style="fill:#b75742;fill-opacity:1;fill-rule:nonzero;stroke:none"
           d="m 16287.6,3251.92 -297.1,10.64 70.4,-59.77 -42,-76.31 281.1,71.65 -12.4,53.79" /></g><g
         transform="scale(0.144436)"
         id="g1221"><path
           id="path1223"
           style="fill:#b75742;fill-opacity:1;fill-rule:nonzero;stroke:none"
           d="m 16253.3,3170.88 -105.1,-183.12 73.9,28.1 28.5,-58.15 49.4,192.61 -46.7,20.56" /></g><g
         transform="scale(0.145185)"
         id="g1225"><path
           id="path1227"
           style="fill:#f47458;fill-opacity:1;fill-rule:nonzero;stroke:none"
           d="m 16209.4,3105.15 c -51.6,-3.65 -96.6,36.57 -100.4,89.82 -3.8,53.24 35.1,99.39 86.8,103.04 51.6,3.65 96.6,-36.58 100.4,-89.82 3.8,-53.24 -35,-99.39 -86.8,-103.04" /></g><g
         transform="scale(0.155799)"
         id="g1229"><path
           id="path1231"
           style="fill:#9bc1f9;fill-opacity:1;fill-rule:nonzero;stroke:none"
           d="m 15687.4,6745.8 -577.7,515.48 c -37.5,33.5 -21.9,102.42 29.9,131.75 l 461,261.05 c 29.6,16.71 62.8,15.16 84.2,-3.93 l 577.7,-515.48 c 37.5,-33.5 21.9,-102.42 -29.9,-131.75 l -461,-261.05 c -29.6,-16.71 -62.8,-15.16 -84.2,3.93" /></g><g
         transform="scale(0.154567)"
         id="g1233"><path
           id="path1235"
           style="fill:#ffffff;fill-opacity:1;fill-rule:nonzero;stroke:none"
           d="m 15784.8,7212.9 -48.5,399.2 c -1.9,15.29 9.3,31.63 24.8,36.49 15.6,4.87 29.8,-3.61 31.7,-18.89 l 44.6,-367.34 441.6,-106.77 c 14.3,-3.48 21,-19 14.8,-34.68 -6.2,-15.66 -23,-25.54 -37.4,-22.05 l -471.6,114.04" /></g><g
         transform="scale(0.165535)"
         id="g1237"><path
           id="path1239"
           style="fill:#184655;fill-opacity:1;fill-rule:nonzero;stroke:none"
           d="m 5560.26,1686.35 c -29.1,0 -52.69,-27.3 -52.69,-61.01 0,-33.65 23.59,-60.96 58.99,-20 H 16275 c 13.7,0 24.8,17.94 24.9,40.23 v 0 c 0.1,22.48 -11.1,40.78 -24.9,40.78 H 5560.26" /></g><path
         id="path1241"
         style="fill:#f7cc7f;fill-opacity:1;fill-rule:nonzero;stroke:none;stroke-width:0.1"
         d="m 1264.55,1397.51 9.3,-18.41 21.02,0.68 8.97,-21.36 22.16,7.62 11.21,-23.71 21.27,4.51 14.51,-21.06 -7.97,-5.49 -10.85,15.74 -22.45,-4.76 -10.77,22.8 -22.53,-7.75 -9.9,23.57 -20.52,-0.66 -8.63,17.06 -13.38,-3.26 -2.29,9.41 20.85,5.07" /><g
         transform="scale(0.154539)"
         id="g1243"><path
           id="path1245"
           style="fill:#50bfa5;fill-opacity:1;fill-rule:nonzero;stroke:none"
           d="m 15466,5996.75 123.6,-50.21 99.7,92.66 134.6,-66.13 75.7,131.42 155.5,-68.07 84.6,112.4 160.3,-41.03 -15.5,-60.63 -119.9,30.61 -89.3,-118.61 -149.4,65.42 -77,-133.63 -148.6,73 -97.3,-90.47 -114.5,46.53 -51.5,-72.8 -51.1,36.17 80.1,113.37" /></g></g></g></svg>
